 http://www.imdb.com/title/tt0117438

Source: Ransom.1996.720p.BluRay.x264-HD4U
 Thanks!

Subs: Bulgarian, Danish, Dutch, English, Finnish, French, Greek, Hebrew and Slovenian.

Sample and Screens included.

General
Complete name                            : Ransom-720p MP4 AAC x264 BRRip 1996-CC.mp4
Format                                   : MPEG-4
Format profile                           : Base Media
Codec ID                                 : isom
File size                                : 2.99 GiB
Duration                                 : 2h 1mn
Overall bit rate mode                    : Variable
Overall bit rate                         : 3 527 Kbps
Encoded date                             : UTC 2013-01-26 09:21:28

Video
ID                                       : 1
Format                                   : AVC
Format/Info                              : Advanced Video Codec
Format profile                           : High@L4.1
Format settings, CABAC                   : Yes
Format settings, ReFrames                : 5 frames
Codec ID                                 : avc1
Codec ID/Info                            : Advanced Video Coding
Duration                                 : 2h 1mn
Bit rate                                 : 3 191 Kbps
Maximum bit rate                         : 38.1 Mbps
Width                                    : 1 280 pixels
Height                                   : 696 pixels
Display aspect ratio                     : 1.85:1
Frame rate mode                          : Variable
Frame rate                               : 23.976 fps
Minimum frame rate                       : 19.048 fps
Maximum frame rate                       : 25.000 fps
Color space                              : YUV
Chroma subsampling                       : 4:2:0
Bit depth                                : 8 bits
Scan type                                : Progressive
Bits/(Pixel*Frame)                       : 0.149
Stream size                              : 2.66 GiB (89%)
Writing library                          : x264 core 112

Audio
ID                                       : 2
Format                                   : AAC
Format/Info                              : Advanced Audio Codec
Format profile                           : LC
Codec ID                                 : 40
Duration                                 : 2h 1mn
Bit rate mode                            : Variable
Bit rate                                 : 384 Kbps
Maximum bit rate                         : 557 Kbps
Channel(s)                               : 6 channels
Channel positions                        : Front: L C R, Side: L R, LFE
Sampling rate                            : 48.0 KHz
Compression mode                         : Lossy
Delay relative to video                  : 83ms
Stream size                              : 333 MiB (11%)
Language                                 : English

Enjoy...

Requested by majmi

Coming soon: Apocalypse Hitler, Ikiru, Cruel Intentions and more...